<svg version="1.2" xmlns="http://www.w3.org/2000/svg" viewBox="0 0 471 467" width="471" height="467">
	<title>path76</title>
	<style>
		.s0 { fill: #ffffff } 
	</style>
	<path id="path68" class="s0" d="m136.5 335.8l61.2 67.8 50.8 56.4h61.4l-112.2-124.6-112.3-124.6v249.2h51.1z"/>
	<path id="path72" class="s0" d="m363.9 466.4v-116.1l77 85.6 21.5 23.8 6 6.7h2.6v-460h-51.1v337.8l-81.6-90.4-140.6-156-82.4-91.4h-61.6l104.9 116.2v-0.1l39.1 43.4 115 127.7v50.6l-115-127.7-194.4-215.9h-2.9v459.4h51.1v-337.5l146.2 162.3 140.6 156.1 23 25.5z"/>
	<path id="path76" class="s0" d="m363.9 231.7v-225.3h-25.6-25.6v168.6l25.6 28.4z"/>
</svg>